<?xml version="1.0" encoding="UTF-8"?>
<!DOCTYPE svg PUBLIC "-//W3C//DTD SVG 1.1//EN" "http://www.w3.org/Graphics/SVG/1.1/DTD/svg11.dtd">
<!-- Creator: CorelDRAW -->
<svg xmlns="http://www.w3.org/2000/svg" xml:space="preserve" width="8.66666in" height="8.66666in" style="shape-rendering:geometricPrecision; text-rendering:geometricPrecision; image-rendering:optimizeQuality; fill-rule:evenodd; clip-rule:evenodd"
viewBox="0 0 8.66666 8.66666"
 xmlns:xlink="http://www.w3.org/1999/xlink">
 <defs>
  <style type="text/css">
   <![CDATA[
    .fil0 {fill:black}
    .fil1 {fill:white}
    .fil2 {fill:white;fill-rule:nonzero}
   ]]>
  </style>
 </defs>
 <g id="Layer_x0020_1">
  <metadata id="CorelCorpID_0Corel-Layer"/>
  <circle class="fil0" cx="4.33333" cy="4.33333" r="4.33333"/>
  <g id="_275983344">
   <g>
    <path id="_275983248" class="fil1" d="M6.03326 5.95962c-0.0509646,-0.0509567 -0.121398,-0.0824882 -0.199189,-0.0824882 -0.0777913,0 -0.148224,0.0315315 -0.199181,0.0824961 -0.0509646,0.0509567 -0.0824961,0.121394 -0.0824961,0.199181 0,0.0777913 0.0315315,0.148228 0.0824882,0.199189 0.0509646,0.0509646 0.121398,0.0824961 0.199189,0.0824961 0.0777992,0 0.148232,-0.0315315 0.199189,-0.0824961 0.0509646,-0.0509567 0.0824961,-0.12139 0.0824961,-0.199189 0,-0.0777874 -0.0315315,-0.148224 -0.0824961,-0.199189z"/>
    <path id="_275983200" class="fil1" d="M4.20328 5.95962c-0.0509646,-0.0509567 -0.121398,-0.0824882 -0.199189,-0.0824882 -0.0777913,0 -0.148224,0.0315315 -0.199181,0.0824961 -0.0509646,0.0509567 -0.0824961,0.121394 -0.0824961,0.199181 0,0.0777913 0.0315315,0.148228 0.0824882,0.199189 0.0509646,0.0509646 0.121398,0.0824961 0.199189,0.0824961 0.0777992,0 0.148232,-0.0315315 0.199189,-0.0824961 0.0509646,-0.0509567 0.0824961,-0.12139 0.0824961,-0.199189 0,-0.0777874 -0.0315315,-0.148224 -0.0824961,-0.199189z"/>
   </g>
   <path id="_275983704" class="fil1" d="M6.63388 3.73841c0.160299,-0.160299 0.259453,-0.381772 0.259453,-0.626394 0,-0.244626 -0.0991535,-0.466094 -0.259453,-0.626394 -0.160299,-0.160299 -0.381768,-0.259453 -0.626398,-0.259453 -0.244622,0 -0.466091,0.0991535 -0.62639,0.259453 -0.160299,0.160299 -0.259453,0.381772 -0.259453,0.626394 0,0.0701181 0.00814567,0.138335 0.0235433,0.203748 0.000547244,0.00196457 0.00102756,0.00396457 0.00143307,0.00598425 0.038937,0.16039 0.121528,0.303713 0.234476,0.416661 0.0812362,0.0812362 0.178181,0.146768 0.285886,0.19165 0.00205118,0.000751969 0.00406299,0.00158268 0.00603543,0.00248819 0.103201,0.0421102 0.216126,0.065315 0.334469,0.065315 0.202732,0 0.389555,-0.0680984 0.538843,-0.182661l-4.33071e-005 -5.51181e-005c0.000889764,-0.000681102 0.00178346,-0.00134252 0.00268898,-0.00198425 0.029878,-0.0231063 0.0582402,-0.0480827 0.0849094,-0.074752zm-0.0586969 -0.626394c0,0.045937 -0.0372441,0.0831811 -0.0831811,0.0831811l-0.401339 0 0 0.401331c0,0.045937 -0.0372402,0.0831811 -0.0831811,0.0831811 -0.045937,0 -0.0831772,-0.0372441 -0.0831772,-0.0831811l0 -0.401331 -0.401335 0c-0.045937,0 -0.0831811,-0.0372441 -0.0831811,-0.0831811 0,-0.045937 0.0372441,-0.0831811 0.0831811,-0.0831811l0.401335 0 0 -0.401331c0,-0.045937 0.0372402,-0.0831811 0.0831772,-0.0831811 0.0459409,0 0.0831811,0.0372441 0.0831811,0.0831811l0 0.401331 0.401339 0c0.045937,0 0.0831811,0.0372441 0.0831811,0.0831811z"/>
   <path id="_275983776" class="fil1" d="M6.07476 5.82315l0.474043 -1.84682c-0.138496,0.0670906 -0.293929,0.104713 -0.458142,0.104713 -0.136079,0 -0.26613,-0.0258307 -0.385508,-0.0728661l-2.22366 0c-0.045937,0 -0.0831811,-0.0372441 -0.0831811,-0.0831811 0,-0.0459409 0.0372441,-0.0831811 0.0831811,-0.0831811l1.94115 0c-0.0264409,-0.0217559 -0.0518031,-0.0447717 -0.0759921,-0.0689606 -0.11987,-0.119866 -0.210949,-0.268524 -0.261988,-0.434701l-1.94394 0 0.637854 2.485 2.29619 0zm-0.335862 -1.15823l-1.62446 0c-0.045937,0 -0.0831811,-0.0372441 -0.0831811,-0.0831811 0,-0.045937 0.0372441,-0.0831811 0.0831811,-0.0831811l1.62446 0c0.045937,0 0.0831811,0.0372441 0.0831811,0.0831811 0,0.045937 -0.0372441,0.0831811 -0.0831811,0.0831811zm0.333638 -0.32837l-2.29174 0c-0.045937,0 -0.0831811,-0.0372441 -0.0831811,-0.0831811 0,-0.045937 0.0372441,-0.0831811 0.0831811,-0.0831811l2.29174 0c0.0459409,0 0.0831811,0.0372441 0.0831811,0.0831811 0,0.045937 -0.0372402,0.0831811 -0.0831811,0.0831811z"/>
   <path id="_275983680" class="fil2" d="M1.85651 2.26685c-0.045937,0 -0.0831811,0.0372441 -0.0831811,0.0831811 0,0.045937 0.0372441,0.0831811 0.0831811,0.0831811l1.04003 0 0.251303 0.937894c0.0118425,0.0443228 0.057378,0.0706535 0.101705,0.058811 0.0443228,-0.0118425 0.0706535,-0.057378 0.058811,-0.101705l-0.266705 -0.995386c-0.0079252,-0.0376811 -0.0413583,-0.0659764 -0.0813976,-0.0659764l-1.10375 0z"/>
  </g>
 </g>
</svg>
